<?xml version="1.0" encoding="UTF-8" standalone="no"?><!DOCTYPE svg PUBLIC "-//W3C//DTD SVG 1.1//EN" "http://www.w3.org/Graphics/SVG/1.1/DTD/svg11.dtd"><svg width="100%" height="100%" viewBox="0 0 2084 2084" version="1.1" xmlns="http://www.w3.org/2000/svg" xmlns:xlink="http://www.w3.org/1999/xlink" xml:space="preserve" xmlns:serif="http://www.serif.com/" style="fill-rule:evenodd;clip-rule:evenodd;stroke-linejoin:round;stroke-miterlimit:2;"><path d="M1119.8,696.966c-0,178.305 -0.936,356.572 -2.808,534.799c-0.546,47.268 7.566,92.819 24.336,136.654c4.211,10.92 11.426,19.227 21.644,24.921c15.756,8.736 14.274,13.611 -4.446,14.625c-74.333,4.056 -145.858,3.978 -214.575,-0.234c-17.705,-1.014 -19.343,-6.747 -4.914,-17.199c12.48,-8.97 20.631,-21.06 24.453,-36.27c12.636,-49.763 17.94,-100.345 15.912,-151.746c-2.886,-72.461 -2.886,-224.403 -0,-455.826c21.684,-14.586 55.808,-29.366 102.373,-44.342c17.628,-5.694 30.303,-7.488 38.025,-5.382Z" style="fill:#d39385;fill-rule:nonzero;"/><path d="M1119.8,672.63c-42.042,10.452 -82.757,24.492 -122.146,42.12c-5.616,2.574 -11.544,3.315 -17.784,2.223l-0.351,-104.597c-0,-5.199 -4.225,-9.477 -9.36,-9.477l-626.526,0c-4.236,0 -7.722,3.486 -7.722,7.722l0,603.477c0,1.17 -0.195,10.92 -0.585,29.25c-0.78,42.431 5.187,80.69 17.901,114.775c3.276,8.658 8.034,16.341 14.274,23.049c16.847,18.096 16.067,27.3 -2.34,27.612c-62.399,0.936 -124.799,1.482 -187.198,1.638c-32.057,-0 -34.709,-10.452 -7.956,-31.356c11.232,-8.892 17.433,-20.436 18.603,-34.631c8.736,-107.093 12.207,-209.973 10.413,-308.642c-5.694,-305.6 -6.864,-494.747 -3.51,-567.442c5.07,-111.226 4.251,-222.375 -2.457,-333.445c-2.106,-35.334 -15.912,-64.583 -41.417,-87.749c-8.034,-7.254 -6.825,-10.92 3.627,-10.998l214.926,-0.702c14.195,0 16.457,5.187 6.785,15.561c-21.449,23.166 -33.539,48.164 -36.269,74.996c-2.73,27.3 -4.134,54.638 -4.212,82.016c-0.39,123.862 -0.585,246.203 -0.585,367.024c0,5.648 4.648,10.296 10.296,10.296l623.25,-0c5.442,-0 9.926,-4.468 9.945,-9.911c-0,-0.011 -0,-0.023 -0,-0.034c-0,-93.755 0.507,-188.914 1.521,-285.476c0.546,-56.471 -2.379,-112.748 -8.775,-168.829c-2.886,-25.427 -14.781,-49.451 -35.685,-72.071c-8.423,-9.048 -6.473,-13.572 5.85,-13.572l216.681,0c11.466,0 12.87,3.783 4.212,11.349c-21.449,18.72 -34.007,45.162 -37.673,79.325c-5.538,52.493 -8.073,105.143 -7.605,157.948c1.248,129.478 1.872,258.995 1.872,388.551Z" style="fill:#d39385;fill-rule:nonzero;"/><path d="M979.869,716.973c17.082,-8.775 98.98,-37.206 139.93,-44.343c261.374,-45.551 483.515,28.197 666.422,221.244c7.064,7.42 9.576,18.096 6.552,27.846c-13.65,43.367 -26.792,90.088 -39.428,140.164c-3.12,12.479 -8.853,16.847 -17.199,13.103c-4.056,-1.871 -7.761,-6.005 -11.115,-12.401c-48.671,-92.429 -111.655,-173.821 -188.952,-244.176c-72.227,-65.831 -158.338,-108.418 -258.332,-127.762c-55.77,-10.764 -108.419,-8.658 -157.948,6.318c-5.85,1.769 -111.149,34.631 -140.398,49.724c-123.316,76.127 -204.24,187.12 -242.772,332.977c-53.585,202.642 -32.33,396.157 63.764,580.546c63.569,121.834 156.778,213.483 279.626,274.946c93.287,46.643 192.346,67.781 297.176,63.413c70.901,-2.964 137.434,-21.41 199.599,-55.34c72.773,-39.701 121.601,-99.293 146.482,-178.773c19.89,-63.491 27.066,-127.724 21.528,-192.697c-3.9,-46.331 -15.444,-81.703 -34.632,-106.117c-25.115,-31.746 -61.073,-49.958 -107.872,-54.638c-58.265,-5.928 -118.948,-8.112 -182.049,-6.552c-10.452,0.312 -12.48,-3.666 -6.084,-11.934c4.368,-5.616 11.465,-8.034 21.293,-7.254c11.544,1.014 17.55,1.521 18.018,1.521l461.909,0c24.414,0 28.08,6.591 10.998,19.773c-14.352,10.998 -22.814,25.739 -25.388,44.225c-2.106,15.6 -3.705,31.278 -4.797,47.033c-1.482,20.748 -3.12,36.387 -4.914,46.917c-33.228,195.153 -136.576,338.242 -310.046,429.267c-103.426,54.209 -217.266,78.583 -341.518,73.124c-140.476,-6.162 -265.43,-47.463 -374.863,-123.902c-63.569,-44.381 -118.558,-99.097 -164.967,-164.148c-84.161,-117.857 -126.514,-249.753 -127.06,-395.689c-0.624,-155.685 41.534,-292.924 126.475,-411.717c69.653,-97.342 163.174,-175.575 280.562,-234.698" style="fill:#d6c4af;fill-rule:nonzero;"/></svg>