<?xml version="1.0" encoding="UTF-8" standalone="no"?><!DOCTYPE svg PUBLIC "-//W3C//DTD SVG 1.1//EN" "http://www.w3.org/Graphics/SVG/1.1/DTD/svg11.dtd"><svg width="100%" height="100%" viewBox="0 0 8534 8534" version="1.1" xmlns="http://www.w3.org/2000/svg" xmlns:xlink="http://www.w3.org/1999/xlink" xml:space="preserve" xmlns:serif="http://www.serif.com/" style="fill-rule:evenodd;clip-rule:evenodd;stroke-linejoin:round;stroke-miterlimit:2;"><g id="document"><path d="M3302.54,3709.28l-205.884,-758.246l-763.266,200.863l205.879,763.266l763.271,-205.883Zm-0,1114.78l-763.271,-205.883l-205.879,763.266l763.266,200.863l205.884,-758.246Zm964.125,557.383l-557.388,557.388l557.388,557.383l557.387,-557.383l-557.387,-557.387Zm964.125,-557.384l205.883,763.267l763.267,-205.883l-205.879,-763.267l-763.271,205.883Zm-0,-1114.78l763.271,205.883l205.879,-763.266l-763.267,-200.863l-205.883,758.246Zm-964.125,-557.383l557.387,-557.388l-557.387,-557.383l-557.388,557.383l557.388,557.388Z" style="fill:#e2e5e4;fill-rule:nonzero;"/></g></svg>